NotoSerifYezidi-SemiBold.ufo
<glyph name="uni060C" format="2">
  <advance width="242"/>
  <unicode hex="060C"/>
  <outline>
    <contour>
      <point x="125" y="-54" type="curve" smooth="yes"/>
      <point x="165" y="-54"/>
      <point x="197" y="-21"/>
      <point x="205" y="27" type="curve"/>
      <point x="168" y="38"/>
      <point x="147" y="49"/>
      <point x="147" y="68" type="curve" smooth="yes"/>
      <point x="147" y="97"/>
      <point x="169" y="149"/>
      <point x="207" y="193" type="curve"/>
      <point x="166" y="226" type="line"/>
      <point x="84" y="148"/>
      <point x="52" y="83"/>
      <point x="52" y="26" type="curve" smooth="yes"/>
      <point x="52" y="-19"/>
      <point x="82" y="-54"/>
    </contour>
  </outline>
</glyph>
<glyph name="uni061B" format="2">
  <advance width="242"/>
  <unicode hex="061B"/>
  <outline>
    <contour>
      <point x="126" y="187" type="curve" smooth="yes"/>
      <point x="166" y="187"/>
      <point x="198" y="219"/>
      <point x="207" y="268" type="curve"/>
      <point x="170" y="279"/>
      <point x="148" y="291"/>
      <point x="148" y="309" type="curve" smooth="yes"/>
      <point x="148" y="338"/>
      <point x="170" y="390"/>
      <point x="209" y="433" type="curve"/>
      <point x="168" y="467" type="line"/>
      <point x="86" y="389"/>
      <point x="53" y="324"/>
      <point x="53" y="267" type="curve" smooth="yes"/>
      <point x="53" y="222"/>
      <point x="83" y="187"/>
    </contour>
    <contour>
      <point x="158" y="-62" type="curve"/>
      <point x="191" y="-15"/>
      <point x="207" y="13"/>
      <point x="207" y="22" type="curve" smooth="yes"/>
      <point x="207" y="35"/>
      <point x="177" y="58"/>
      <point x="117" y="93" type="curve"/>
      <point x="107" y="78"/>
      <point x="98" y="63"/>
      <point x="90" y="48" type="curve" smooth="yes"/>
      <point x="82" y="32"/>
      <point x="73" y="17"/>
      <point x="64" y="0" type="curve"/>
      <point x="93" y="-16"/>
      <point x="124" y="-37"/>
    </contour>
  </outline>
</glyph>
<glyph name="uni061F" format="2">
  <advance width="425"/>
  <unicode hex="061F"/>
  <outline>
    <contour>
      <point x="243" y="117" type="line"/>
      <point x="266" y="164"/>
      <point x="277" y="202"/>
      <point x="277" y="230" type="curve" smooth="yes"/>
      <point x="277" y="261"/>
      <point x="264" y="287"/>
      <point x="242" y="308" type="curve" smooth="yes"/>
      <point x="212" y="338"/>
      <point x="163" y="358"/>
      <point x="95" y="383" type="curve"/>
      <point x="115" y="443"/>
      <point x="164" y="477"/>
      <point x="231" y="477" type="curve" smooth="yes"/>
      <point x="278" y="477"/>
      <point x="304" y="465"/>
      <point x="342" y="428" type="curve"/>
      <point x="364" y="447"/>
      <point x="375" y="470"/>
      <point x="375" y="495" type="curve" smooth="yes"/>
      <point x="375" y="512"/>
      <point x="369" y="528"/>
      <point x="357" y="540" type="curve" smooth="yes"/>
      <point x="329" y="568"/>
      <point x="290" y="584"/>
      <point x="242" y="584" type="curve" smooth="yes"/>
      <point x="210" y="584"/>
      <point x="179" y="574"/>
      <point x="150" y="553" type="curve" smooth="yes"/>
      <point x="90" y="514"/>
      <point x="49" y="442"/>
      <point x="49" y="379" type="curve" smooth="yes"/>
      <point x="49" y="332"/>
      <point x="74" y="295"/>
      <point x="125" y="266" type="curve" smooth="yes"/>
      <point x="153" y="250"/>
      <point x="173" y="237"/>
      <point x="183" y="227" type="curve" smooth="yes"/>
      <point x="194" y="217"/>
      <point x="199" y="205"/>
      <point x="199" y="193" type="curve" smooth="yes"/>
      <point x="199" y="183"/>
      <point x="197" y="168"/>
      <point x="193" y="149" type="curve"/>
    </contour>
    <contour>
      <point x="217" y="-65" type="curve"/>
      <point x="250" y="-18"/>
      <point x="266" y="10"/>
      <point x="266" y="19" type="curve" smooth="yes"/>
      <point x="266" y="24"/>
      <point x="259" y="33"/>
      <point x="246" y="45" type="curve" smooth="yes"/>
      <point x="232" y="56"/>
      <point x="208" y="71"/>
      <point x="176" y="90" type="curve"/>
      <point x="166" y="75"/>
      <point x="157" y="60"/>
      <point x="149" y="45" type="curve" smooth="yes"/>
      <point x="141" y="29"/>
      <point x="132" y="14"/>
      <point x="123" y="-3" type="curve"/>
      <point x="154" y="-20"/>
      <point x="183" y="-40"/>
    </contour>
  </outline>
</glyph>
<glyph name="uni06D4" format="2">
  <advance width="272"/>
  <unicode hex="06D4"/>
  <outline>
    <contour>
      <point x="44" y="6" type="curve" smooth="yes"/>
      <point x="227" y="6" type="line" smooth="yes"/>
      <point x="230" y="6"/>
      <point x="232" y="7"/>
      <point x="232" y="9" type="curve" smooth="yes"/>
      <point x="232" y="105" type="line" smooth="yes"/>
      <point x="232" y="107"/>
      <point x="230" y="108"/>
      <point x="227" y="108" type="curve" smooth="yes"/>
      <point x="44" y="108" type="line" smooth="yes"/>
      <point x="42" y="108"/>
      <point x="41" y="107"/>
      <point x="41" y="105" type="curve" smooth="yes"/>
      <point x="41" y="9" type="line" smooth="yes"/>
      <point x="41" y="7"/>
      <point x="42" y="6"/>
    </contour>
  </outline>
</glyph>
<glyph name="elif-yezi" format="2">
	<unicode hex="10E80"/>
	<advance width="235"/>
	<outline>
		<contour>
			<point x="105" y="0" type="curve"/>
			<point x="148" y="0" type="line"/>
			<point x="152" y="95"/>
			<point x="154" y="199"/>
			<point x="154" y="291" type="curve" smooth="yes"/>
			<point x="154" y="476"/>
			<point x="145" y="621"/>
			<point x="126" y="770" type="curve"/>
			<point x="120" y="770" type="line"/>
			<point x="27" y="702" type="line"/>
			<point x="80" y="497"/>
			<point x="105" y="273"/>
		</contour>
	</outline>
	<anchor name="top" x="54" y="795"/>
	<anchor name="top.madda" x="54" y="792"/>
</glyph>
<glyph name="be-yezi" format="2">
  <advance width="520"/>
  <unicode hex="10E81"/>
  <outline>
    <contour>
      <point x="260" y="0" type="curve"/>
      <point x="274" y="0" type="line"/>
      <point x="340" y="157"/>
      <point x="411" y="305"/>
      <point x="491" y="440" type="curve"/>
      <point x="459" y="463" type="line"/>
      <point x="396" y="354"/>
      <point x="341" y="245"/>
      <point x="289" y="131" type="curve"/>
      <point x="321" y="131" type="line"/>
      <point x="260" y="249"/>
      <point x="193" y="361"/>
      <point x="121" y="470" type="curve"/>
      <point x="114" y="470" type="line"/>
      <point x="23" y="362" type="line"/>
      <point x="106" y="251"/>
      <point x="186" y="128"/>
    </contour>
  </outline>
</glyph>
<glyph name="pe-yezi" format="2">
  <advance width="465"/>
  <unicode hex="10E82"/>
  <outline>
    <contour>
      <point x="78" y="-293" type="line"/>
      <point x="323" y="-108" type="line" smooth="yes"/>
      <point x="397" y="-52"/>
      <point x="416" y="-29"/>
      <point x="416" y="4" type="curve" smooth="yes"/>
      <point x="416" y="42"/>
      <point x="392" y="69"/>
      <point x="333" y="95" type="curve" smooth="yes"/>
      <point x="194" y="157" type="line"/>
      <point x="128" y="87" type="line"/>
      <point x="317" y="213" type="line" smooth="yes"/>
      <point x="376" y="253"/>
      <point x="395" y="277"/>
      <point x="395" y="309" type="curve" smooth="yes"/>
      <point x="395" y="347"/>
      <point x="367" y="370"/>
      <point x="283" y="402" type="curve" smooth="yes"/>
      <point x="113" y="468" type="line"/>
      <point x="107" y="468" type="line"/>
      <point x="34" y="369" type="line"/>
      <point x="34" y="363" type="line"/>
      <point x="223" y="289" type="line" smooth="yes"/>
      <point x="257" y="276"/>
      <point x="266" y="268"/>
      <point x="266" y="251" type="curve" smooth="yes"/>
      <point x="266" y="233"/>
      <point x="257" y="221"/>
      <point x="221" y="195" type="curve" smooth="yes"/>
      <point x="78" y="91" type="line"/>
      <point x="78" y="70" type="line"/>
      <point x="240" y="-3" type="line" smooth="yes"/>
      <point x="275" y="-18"/>
      <point x="287" y="-31"/>
      <point x="287" y="-53" type="curve" smooth="yes"/>
      <point x="287" y="-74"/>
      <point x="276" y="-89"/>
      <point x="233" y="-125" type="curve" smooth="yes"/>
      <point x="54" y="-266" type="line"/>
    </contour>
  </outline>
</glyph>
<glyph name="phe-yezi" format="2">
  <advance width="486"/>
  <unicode hex="10E83"/>
  <outline>
    <contour>
      <point x="361" y="-204" type="curve"/>
      <point x="465" y="-142" type="line"/>
      <point x="468" y="-136" type="line"/>
      <point x="401" y="-32"/>
      <point x="348" y="62"/>
      <point x="301" y="158" type="curve" smooth="yes"/>
      <point x="254" y="255"/>
      <point x="211" y="340"/>
      <point x="134" y="464" type="curve"/>
      <point x="30" y="402" type="line"/>
      <point x="28" y="396" type="line"/>
      <point x="94" y="292"/>
      <point x="148" y="198"/>
      <point x="194" y="102" type="curve" smooth="yes"/>
      <point x="242" y="4"/>
      <point x="285" y="-81"/>
    </contour>
  </outline>
</glyph>
<glyph name="the-yezi" format="2">
  <advance width="519"/>
  <unicode hex="10E84"/>
  <outline>
    <contour>
      <point x="19" y="0" type="line"/>
      <point x="454" y="0" type="line"/>
      <point x="500" y="121" type="line"/>
      <point x="500" y="126" type="line"/>
      <point x="65" y="126" type="line"/>
      <point x="19" y="6" type="line"/>
    </contour>
    <contour>
      <point x="252" y="92" type="curve"/>
      <point x="300" y="92" type="line"/>
      <point x="304" y="145"/>
      <point x="306" y="194"/>
      <point x="306" y="245" type="curve" smooth="yes"/>
      <point x="305" y="327"/>
      <point x="300" y="396"/>
      <point x="289" y="463" type="curve"/>
      <point x="283" y="463" type="line"/>
      <point x="210" y="412" type="line"/>
      <point x="238" y="310"/>
      <point x="252" y="208"/>
    </contour>
  </outline>
</glyph>
<glyph name="se-yezi" format="2">
  <advance width="497"/>
  <unicode hex="10E85"/>
  <outline>
    <contour>
      <point x="292" y="0" type="curve"/>
      <point x="328" y="0" type="line"/>
      <point x="273" y="167"/>
      <point x="184" y="322"/>
      <point x="98" y="410" type="curve"/>
      <point x="103" y="337" type="line"/>
      <point x="449" y="337" type="line"/>
      <point x="495" y="457" type="line"/>
      <point x="495" y="463" type="line"/>
      <point x="71" y="463" type="line"/>
      <point x="25" y="343" type="line"/>
      <point x="25" y="337" type="line"/>
      <point x="120" y="261"/>
      <point x="226" y="143"/>
    </contour>
  </outline>
</glyph>
<glyph name="cim-yezi" format="2">
  <advance width="548"/>
  <unicode hex="10E86"/>
  <outline>
    <contour>
      <point x="4" y="0" type="line"/>
      <point x="469" y="0" type="line"/>
      <point x="513" y="114" type="line"/>
      <point x="424" y="215"/>
      <point x="343" y="331"/>
      <point x="266" y="463" type="curve"/>
      <point x="252" y="463" type="line"/>
      <point x="183" y="309"/>
      <point x="98" y="158"/>
      <point x="4" y="11" type="curve"/>
    </contour>
    <contour>
      <point x="411" y="61" type="curve"/>
      <point x="422" y="106" type="line"/>
      <point x="72" y="106" type="line"/>
      <point x="84" y="66" type="line"/>
      <point x="137" y="152"/>
      <point x="191" y="250"/>
      <point x="234" y="331" type="curve"/>
      <point x="217" y="331" type="line"/>
      <point x="279" y="234"/>
      <point x="343" y="144"/>
    </contour>
  </outline>
</glyph>
<glyph name="chim-yezi" format="2">
  <advance width="670"/>
  <unicode hex="10E87"/>
  <outline>
    <contour>
      <point x="4" y="0" type="line"/>
      <point x="469" y="0" type="line"/>
      <point x="650" y="407" type="line"/>
      <point x="615" y="423" type="line"/>
      <point x="465" y="88" type="line"/>
      <point x="513" y="113" type="line"/>
      <point x="425" y="215"/>
      <point x="343" y="331"/>
      <point x="266" y="463" type="curve"/>
      <point x="252" y="463" type="line"/>
      <point x="183" y="309"/>
      <point x="98" y="158"/>
      <point x="4" y="11" type="curve"/>
    </contour>
    <contour>
      <point x="85" y="68" type="line"/>
      <point x="142" y="159"/>
      <point x="198" y="262"/>
      <point x="240" y="345" type="curve"/>
      <point x="208" y="345" type="line"/>
      <point x="270" y="247"/>
      <point x="335" y="154"/>
      <point x="403" y="71" type="curve"/>
      <point x="403" y="106" type="line"/>
      <point x="85" y="106" type="line"/>
    </contour>
  </outline>
</glyph>
<glyph name="hha-yezi" format="2">
  <advance width="548"/>
  <unicode hex="10E89"/>
  <outline>
    <contour>
      <point x="283" y="0" type="curve"/>
      <point x="297" y="0" type="line"/>
      <point x="365" y="154"/>
      <point x="450" y="305"/>
      <point x="544" y="452" type="curve"/>
      <point x="544" y="463" type="line"/>
      <point x="79" y="463" type="line"/>
      <point x="35" y="349" type="line"/>
      <point x="125" y="248"/>
      <point x="206" y="132"/>
    </contour>
    <contour>
      <point x="315" y="132" type="curve"/>
      <point x="331" y="132" type="line"/>
      <point x="270" y="229"/>
      <point x="205" y="319"/>
      <point x="137" y="402" type="curve"/>
      <point x="126" y="357" type="line"/>
      <point x="476" y="357" type="line"/>
      <point x="464" y="397" type="line"/>
      <point x="412" y="311"/>
      <point x="357" y="213"/>
    </contour>
  </outline>
</glyph>
<glyph name="xa-yezi" format="2">
  <advance width="595"/>
  <unicode hex="10E8A"/>
  <outline>
    <contour>
      <point x="31" y="0" type="line"/>
      <point x="496" y="0" type="line"/>
      <point x="540" y="114" type="line"/>
      <point x="461" y="203"/>
      <point x="389" y="303"/>
      <point x="320" y="416" type="curve"/>
      <point x="257" y="416" type="line"/>
      <point x="192" y="278"/>
      <point x="115" y="143"/>
      <point x="31" y="11" type="curve"/>
    </contour>
    <contour>
      <point x="438" y="61" type="curve"/>
      <point x="449" y="106" type="line"/>
      <point x="99" y="106" type="line"/>
      <point x="111" y="66" type="line"/>
      <point x="163" y="152"/>
      <point x="218" y="250"/>
      <point x="260" y="331" type="curve"/>
      <point x="244" y="331" type="line"/>
      <point x="305" y="234"/>
      <point x="370" y="144"/>
    </contour>
    <contour>
      <point x="24" y="368" type="line"/>
      <point x="505" y="368" type="line"/>
      <point x="537" y="457" type="line"/>
      <point x="537" y="463" type="line"/>
      <point x="58" y="463" type="line"/>
      <point x="24" y="374" type="line"/>
    </contour>
  </outline>
</glyph>
<glyph name="dal-yezi" format="2">
  <advance width="524"/>
  <unicode hex="10E8B"/>
  <outline>
    <contour>
      <point x="56" y="0" type="line"/>
      <point x="427" y="0" type="line"/>
      <point x="473" y="115" type="line"/>
      <point x="473" y="121" type="line"/>
      <point x="461" y="177"/>
      <point x="453" y="229"/>
      <point x="453" y="285" type="curve" smooth="yes"/>
      <point x="453" y="336"/>
      <point x="458" y="392"/>
      <point x="468" y="457" type="curve"/>
      <point x="468" y="463" type="line"/>
      <point x="98" y="463" type="line"/>
      <point x="51" y="348" type="line"/>
      <point x="51" y="342" type="line"/>
      <point x="64" y="286"/>
      <point x="71" y="234"/>
      <point x="71" y="178" type="curve" smooth="yes"/>
      <point x="71" y="127"/>
      <point x="66" y="71"/>
      <point x="56" y="6" type="curve"/>
    </contour>
    <contour>
      <point x="407" y="70" type="curve"/>
      <point x="455" y="121" type="line"/>
      <point x="95" y="121" type="line"/>
      <point x="98" y="97" type="line"/>
      <point x="110" y="171"/>
      <point x="122" y="245"/>
      <point x="122" y="319" type="curve" smooth="yes"/>
      <point x="122" y="344"/>
      <point x="120" y="369"/>
      <point x="117" y="393" type="curve"/>
      <point x="69" y="342" type="line"/>
      <point x="429" y="342" type="line"/>
      <point x="426" y="366" type="line"/>
      <point x="414" y="292"/>
      <point x="402" y="218"/>
      <point x="402" y="144" type="curve" smooth="yes"/>
      <point x="402" y="119"/>
      <point x="404" y="94"/>
    </contour>
  </outline>
</glyph>
<glyph name="zal-yezi" format="2">
  <advance width="527"/>
  <unicode hex="10E8C"/>
  <outline>
    <contour>
      <point x="72" y="-293" type="line"/>
      <point x="77" y="-293" type="line"/>
      <point x="148" y="-253" type="line"/>
      <point x="113" y="383" type="line"/>
      <point x="94" y="342" type="line"/>
      <point x="432" y="342" type="line"/>
      <point x="429" y="366" type="line"/>
      <point x="417" y="292"/>
      <point x="405" y="218"/>
      <point x="405" y="144" type="curve" smooth="yes"/>
      <point x="405" y="119"/>
      <point x="407" y="94"/>
      <point x="410" y="70" type="curve"/>
      <point x="458" y="121" type="line"/>
      <point x="96" y="121" type="line"/>
      <point x="96" y="0" type="line"/>
      <point x="430" y="0" type="line"/>
      <point x="476" y="115" type="line"/>
      <point x="476" y="121" type="line"/>
      <point x="464" y="177"/>
      <point x="456" y="229"/>
      <point x="456" y="285" type="curve" smooth="yes"/>
      <point x="456" y="336"/>
      <point x="461" y="392"/>
      <point x="471" y="457" type="curve"/>
      <point x="471" y="463" type="line"/>
      <point x="108" y="463" type="line"/>
      <point x="91" y="441"/>
      <point x="64" y="380"/>
      <point x="64" y="310" type="curve" smooth="yes"/>
    </contour>
  </outline>
</glyph>
<glyph name="rha-yezi" format="2">
  <advance width="650"/>
  <unicode hex="10E8E"/>
  <outline>
    <contour>
      <point x="551" y="-5" type="curve" smooth="yes"/>
      <point x="581" y="-5"/>
      <point x="603" y="9"/>
      <point x="612" y="42" type="curve"/>
      <point x="569" y="64"/>
      <point x="548" y="122"/>
      <point x="548" y="211" type="curve" smooth="yes"/>
      <point x="548" y="290"/>
      <point x="562" y="373"/>
      <point x="590" y="457" type="curve"/>
      <point x="590" y="463" type="line"/>
      <point x="98" y="463" type="line"/>
      <point x="53" y="347" type="line"/>
      <point x="75" y="280"/>
      <point x="86" y="214"/>
      <point x="86" y="145" type="curve" smooth="yes"/>
      <point x="86" y="87"/>
      <point x="78" y="43"/>
      <point x="66" y="0" type="curve"/>
      <point x="106" y="0" type="line"/>
      <point x="127" y="76"/>
      <point x="147" y="177"/>
      <point x="147" y="286" type="curve" smooth="yes"/>
      <point x="147" y="339"/>
      <point x="138" y="373"/>
      <point x="129" y="417" type="curve"/>
      <point x="61" y="337" type="line"/>
      <point x="551" y="337" type="line"/>
      <point x="527" y="358" type="line"/>
      <point x="501" y="283"/>
      <point x="477" y="169"/>
      <point x="477" y="100" type="curve" smooth="yes"/>
      <point x="477" y="26"/>
      <point x="504" y="-5"/>
    </contour>
    <contour>
      <point x="98" y="533" type="line"/>
      <point x="590" y="533" type="line"/>
      <point x="590" y="569" type="line"/>
      <point x="98" y="569" type="line"/>
    </contour>
  </outline>
</glyph>
<glyph name="za-yezi" format="2">
  <advance width="365"/>
  <unicode hex="10E8F"/>
  <outline>
    <contour>
      <point x="255" y="-5" type="curve"/>
      <point x="339" y="91" type="line"/>
      <point x="339" y="97" type="line"/>
      <point x="269" y="159"/>
      <point x="192" y="222"/>
      <point x="120" y="275" type="curve"/>
      <point x="106" y="240" type="line"/>
      <point x="173" y="305"/>
      <point x="238" y="371"/>
      <point x="299" y="437" type="curve"/>
      <point x="275" y="463" type="line"/>
      <point x="195" y="380"/>
      <point x="102" y="288"/>
      <point x="11" y="207" type="curve"/>
      <point x="11" y="202" type="line"/>
      <point x="96" y="135"/>
      <point x="180" y="64"/>
    </contour>
  </outline>
</glyph>
<glyph name="ja-yezi" format="2">
  <advance width="689"/>
  <unicode hex="10E90"/>
  <outline>
    <contour>
      <point x="592" y="-7" type="curve"/>
      <point x="597" y="-7" type="line"/>
      <point x="669" y="93" type="line"/>
      <point x="562" y="207"/>
      <point x="458" y="332"/>
      <point x="361" y="463" type="curve"/>
      <point x="348" y="463" type="line"/>
      <point x="260" y="306"/>
      <point x="161" y="159"/>
      <point x="58" y="25" type="curve"/>
      <point x="84" y="0" type="line"/>
      <point x="173" y="115"/>
      <point x="250" y="229"/>
      <point x="322" y="349" type="curve"/>
      <point x="314" y="349" type="line"/>
      <point x="398" y="225"/>
      <point x="492" y="108"/>
    </contour>
    <contour>
      <point x="327" y="0" type="curve"/>
      <point x="341" y="0" type="line"/>
      <point x="428" y="157"/>
      <point x="528" y="304"/>
      <point x="630" y="438" type="curve"/>
      <point x="604" y="463" type="line"/>
      <point x="516" y="348"/>
      <point x="439" y="234"/>
      <point x="366" y="114" type="curve"/>
      <point x="375" y="114" type="line"/>
      <point x="290" y="238"/>
      <point x="196" y="355"/>
      <point x="97" y="470" type="curve"/>
      <point x="91" y="470" type="line"/>
      <point x="20" y="370" type="line"/>
      <point x="127" y="256"/>
      <point x="230" y="131"/>
    </contour>
  </outline>
</glyph>
<glyph name="sin-yezi" format="2">
  <advance width="771"/>
  <unicode hex="10E91"/>
  <outline>
    <contour>
      <point x="60" y="-5" type="line"/>
      <point x="673" y="-5" type="line"/>
      <point x="718" y="111" type="line"/>
      <point x="695" y="178"/>
      <point x="685" y="244"/>
      <point x="685" y="313" type="curve" smooth="yes"/>
      <point x="685" y="371"/>
      <point x="693" y="415"/>
      <point x="704" y="458" type="curve"/>
      <point x="665" y="458" type="line"/>
      <point x="644" y="382"/>
      <point x="623" y="281"/>
      <point x="623" y="172" type="curve" smooth="yes"/>
      <point x="623" y="119"/>
      <point x="632" y="85"/>
      <point x="642" y="41" type="curve"/>
      <point x="709" y="121" type="line"/>
      <point x="99" y="121" type="line"/>
      <point x="123" y="100" type="line"/>
      <point x="148" y="175"/>
      <point x="173" y="289"/>
      <point x="173" y="358" type="curve" smooth="yes"/>
      <point x="173" y="432"/>
      <point x="145" y="463"/>
      <point x="99" y="463" type="curve" smooth="yes"/>
      <point x="68" y="463"/>
      <point x="47" y="449"/>
      <point x="38" y="416" type="curve"/>
      <point x="81" y="394"/>
      <point x="102" y="336"/>
      <point x="102" y="247" type="curve" smooth="yes"/>
      <point x="102" y="168"/>
      <point x="88" y="85"/>
      <point x="60" y="1" type="curve"/>
    </contour>
    <contour>
      <point x="325" y="1" type="curve"/>
      <point x="388" y="100" type="line"/>
      <point x="414" y="175"/>
      <point x="438" y="289"/>
      <point x="438" y="358" type="curve" smooth="yes"/>
      <point x="438" y="432"/>
      <point x="411" y="463"/>
      <point x="364" y="463" type="curve" smooth="yes"/>
      <point x="334" y="463"/>
      <point x="312" y="449"/>
      <point x="303" y="416" type="curve"/>
      <point x="347" y="394"/>
      <point x="367" y="336"/>
      <point x="367" y="247" type="curve" smooth="yes"/>
      <point x="367" y="168"/>
      <point x="354" y="85"/>
    </contour>
  </outline>
</glyph>
<glyph name="shin-yezi" format="2">
  <advance width="770"/>
  <unicode hex="10E92"/>
  <outline>
    <contour>
      <point x="672" y="-5" type="curve" smooth="yes"/>
      <point x="702" y="-5"/>
      <point x="724" y="9"/>
      <point x="732" y="42" type="curve"/>
      <point x="689" y="64"/>
      <point x="669" y="122"/>
      <point x="669" y="211" type="curve" smooth="yes"/>
      <point x="669" y="290"/>
      <point x="682" y="373"/>
      <point x="711" y="457" type="curve"/>
      <point x="711" y="463" type="line"/>
      <point x="98" y="463" type="line"/>
      <point x="53" y="347" type="line"/>
      <point x="75" y="280"/>
      <point x="86" y="214"/>
      <point x="86" y="145" type="curve" smooth="yes"/>
      <point x="86" y="87"/>
      <point x="78" y="43"/>
      <point x="66" y="0" type="curve"/>
      <point x="106" y="0" type="line"/>
      <point x="127" y="76"/>
      <point x="147" y="177"/>
      <point x="147" y="286" type="curve" smooth="yes"/>
      <point x="147" y="339"/>
      <point x="138" y="373"/>
      <point x="129" y="417" type="curve"/>
      <point x="61" y="337" type="line"/>
      <point x="672" y="337" type="line"/>
      <point x="648" y="358" type="line"/>
      <point x="622" y="283"/>
      <point x="598" y="169"/>
      <point x="598" y="100" type="curve" smooth="yes"/>
      <point x="598" y="26"/>
      <point x="625" y="-5"/>
    </contour>
    <contour>
      <point x="406" y="-5" type="curve" smooth="yes"/>
      <point x="437" y="-5"/>
      <point x="458" y="9"/>
      <point x="467" y="42" type="curve"/>
      <point x="424" y="64"/>
      <point x="403" y="122"/>
      <point x="403" y="211" type="curve" smooth="yes"/>
      <point x="403" y="290"/>
      <point x="417" y="373"/>
      <point x="446" y="457" type="curve"/>
      <point x="382" y="358" type="line"/>
      <point x="357" y="283"/>
      <point x="332" y="169"/>
      <point x="332" y="100" type="curve" smooth="yes"/>
      <point x="332" y="26"/>
      <point x="360" y="-5"/>
    </contour>
  </outline>
</glyph>
<glyph name="sad-yezi" format="2">
  <advance width="539"/>
  <unicode hex="10E93"/>
  <outline>
    <contour>
      <point x="29" y="168" type="line"/>
      <point x="464" y="168" type="line"/>
      <point x="510" y="289" type="line"/>
      <point x="510" y="294" type="line"/>
      <point x="75" y="294" type="line"/>
      <point x="29" y="174" type="line"/>
    </contour>
    <contour>
      <point x="247" y="0" type="curve"/>
      <point x="300" y="0" type="line"/>
      <point x="304" y="77"/>
      <point x="307" y="154"/>
      <point x="307" y="231" type="curve" smooth="yes"/>
      <point x="307" y="309"/>
      <point x="304" y="386"/>
      <point x="297" y="463" type="curve"/>
      <point x="291" y="463" type="line"/>
      <point x="222" y="412" type="line"/>
      <point x="242" y="273"/>
      <point x="247" y="136"/>
    </contour>
  </outline>
</glyph>
<glyph name="dad-yezi" format="2">
  <advance width="489"/>
  <unicode hex="10E94"/>
  <outline>
    <contour>
      <point x="386" y="0" type="line"/>
      <point x="475" y="98" type="line"/>
      <point x="475" y="103" type="line"/>
      <point x="102" y="463" type="line"/>
      <point x="14" y="366" type="line"/>
      <point x="14" y="360" type="line"/>
    </contour>
    <contour>
      <point x="70" y="0" type="line"/>
      <point x="446" y="435" type="line"/>
      <point x="446" y="441" type="line"/>
      <point x="420" y="463" type="line"/>
      <point x="43" y="28" type="line"/>
      <point x="43" y="23" type="line"/>
    </contour>
  </outline>
</glyph>
<glyph name="ta-yezi" format="2">
  <advance width="391"/>
  <unicode hex="10E95"/>
  <outline>
    <contour>
      <point x="273" y="-293" type="line"/>
      <point x="278" y="-293" type="line"/>
      <point x="348" y="-248" type="line"/>
      <point x="316" y="292" type="line" smooth="yes"/>
      <point x="310" y="396"/>
      <point x="268" y="463"/>
      <point x="148" y="463" type="curve" smooth="yes"/>
      <point x="54" y="463" type="line"/>
      <point x="7" y="348" type="line"/>
      <point x="7" y="342" type="line"/>
      <point x="131" y="342" type="line" smooth="yes"/>
      <point x="222" y="342"/>
      <point x="261" y="307"/>
      <point x="263" y="214" type="curve" smooth="yes"/>
    </contour>
  </outline>
</glyph>
<glyph name="eyn-yezi" format="2">
  <advance width="518"/>
  <unicode hex="10E97"/>
  <outline>
    <contour>
      <point x="19" y="0" type="line"/>
      <point x="397" y="0" type="line"/>
      <point x="418" y="34"/>
      <point x="437" y="80"/>
      <point x="437" y="169" type="curve" smooth="yes"/>
      <point x="437" y="234"/>
      <point x="433" y="348"/>
      <point x="416" y="463" type="curve"/>
      <point x="410" y="463" type="line"/>
      <point x="337" y="412" type="line"/>
      <point x="368" y="300"/>
      <point x="383" y="189"/>
      <point x="383" y="74" type="curve"/>
      <point x="412" y="126" type="line"/>
      <point x="65" y="126" type="line"/>
      <point x="19" y="6" type="line"/>
    </contour>
  </outline>
</glyph>
<glyph name="xheyn-yezi" format="2">
  <advance width="564"/>
  <unicode hex="10E98"/>
  <outline>
    <contour>
      <point x="24" y="271" type="line"/>
      <point x="501" y="271" type="line"/>
      <point x="540" y="370" type="line"/>
      <point x="540" y="376" type="line"/>
      <point x="62" y="376" type="line"/>
      <point x="24" y="277" type="line"/>
    </contour>
    <contour>
      <point x="174" y="0" type="curve"/>
      <point x="220" y="0" type="line"/>
      <point x="224" y="67"/>
      <point x="226" y="134"/>
      <point x="226" y="201" type="curve" smooth="yes"/>
      <point x="226" y="288"/>
      <point x="222" y="376"/>
      <point x="214" y="463" type="curve"/>
      <point x="209" y="463" type="line"/>
      <point x="149" y="419" type="line"/>
      <point x="169" y="278"/>
      <point x="174" y="138"/>
    </contour>
    <contour>
      <point x="24" y="87" type="line"/>
      <point x="501" y="87" type="line"/>
      <point x="540" y="186" type="line"/>
      <point x="540" y="192" type="line"/>
      <point x="62" y="192" type="line"/>
      <point x="24" y="93" type="line"/>
    </contour>
    <contour>
      <point x="348" y="0" type="curve"/>
      <point x="394" y="0" type="line"/>
      <point x="398" y="67"/>
      <point x="400" y="134"/>
      <point x="400" y="201" type="curve" smooth="yes"/>
      <point x="400" y="288"/>
      <point x="396" y="376"/>
      <point x="388" y="463" type="curve"/>
      <point x="383" y="463" type="line"/>
      <point x="323" y="419" type="line"/>
      <point x="343" y="278"/>
      <point x="348" y="138"/>
    </contour>
  </outline>
</glyph>
<glyph name="fa-yezi" format="2">
  <advance width="463"/>
  <unicode hex="10E99"/>
  <outline>
    <contour>
      <point x="48" y="0" type="line"/>
      <point x="398" y="0" type="line"/>
      <point x="444" y="121" type="line"/>
      <point x="444" y="126" type="line"/>
      <point x="65" y="126" type="line"/>
      <point x="94" y="73" type="line"/>
      <point x="101" y="167"/>
      <point x="106" y="261"/>
      <point x="107" y="354" type="curve" smooth="yes"/>
      <point x="107" y="391"/>
      <point x="107" y="427"/>
      <point x="105" y="463" type="curve"/>
      <point x="100" y="463" type="line"/>
      <point x="27" y="412" type="line"/>
      <point x="45" y="279"/>
      <point x="48" y="146"/>
      <point x="48" y="12" type="curve" smooth="yes"/>
    </contour>
  </outline>
</glyph>
<glyph name="va-yezi" format="2">
  <advance width="365"/>
  <unicode hex="10E9A"/>
  <outline>
    <contour>
      <point x="90" y="-5" type="line"/>
      <point x="170" y="78"/>
      <point x="263" y="170"/>
      <point x="354" y="251" type="curve"/>
      <point x="354" y="256" type="line"/>
      <point x="269" y="323"/>
      <point x="185" y="394"/>
      <point x="110" y="463" type="curve"/>
      <point x="26" y="367" type="line"/>
      <point x="26" y="361" type="line"/>
      <point x="96" y="299"/>
      <point x="173" y="236"/>
      <point x="245" y="183" type="curve"/>
      <point x="259" y="218" type="line"/>
      <point x="192" y="153"/>
      <point x="128" y="87"/>
      <point x="66" y="21" type="curve"/>
    </contour>
    <contour>
      <point x="268" y="-6" type="curve" smooth="yes"/>
      <point x="298" y="-6"/>
      <point x="318" y="11"/>
      <point x="318" y="48" type="curve" smooth="yes"/>
      <point x="318" y="85"/>
      <point x="298" y="102"/>
      <point x="268" y="102" type="curve" smooth="yes"/>
      <point x="238" y="102"/>
      <point x="219" y="85"/>
      <point x="219" y="48" type="curve" smooth="yes"/>
      <point x="219" y="11"/>
      <point x="238" y="-6"/>
    </contour>
  </outline>
</glyph>
<glyph name="va-yezi.alt" format="2">
  <advance width="503"/>
  <unicode hex="10E9B"/>
  <outline>
    <contour>
      <point x="144" y="-204" type="line"/>
      <point x="456" y="442" type="line"/>
      <point x="454" y="448" type="line"/>
      <point x="419" y="463" type="line"/>
      <point x="106" y="-182" type="line"/>
      <point x="107" y="-187" type="line"/>
    </contour>
    <contour>
      <point x="65" y="-108" type="line"/>
      <point x="327" y="435" type="line"/>
      <point x="324" y="441" type="line"/>
      <point x="289" y="456" type="line"/>
      <point x="28" y="-86" type="line"/>
      <point x="29" y="-91" type="line"/>
    </contour>
  </outline>
</glyph>
<glyph name="qaf-yezi" format="2">
  <advance width="500"/>
  <unicode hex="10E9C"/>
  <outline>
    <contour>
      <point x="10" y="0" type="line"/>
      <point x="444" y="0" type="line"/>
      <point x="490" y="120" type="line"/>
      <point x="490" y="126" type="line"/>
      <point x="56" y="126" type="line"/>
      <point x="10" y="6" type="line"/>
    </contour>
    <contour>
      <point x="223" y="-293" type="curve"/>
      <point x="260" y="-293" type="line"/>
      <point x="267" y="-211"/>
      <point x="272" y="-143"/>
      <point x="272" y="-76" type="curve" smooth="yes"/>
      <point x="272" y="-22"/>
      <point x="269" y="34"/>
      <point x="264" y="88" type="curve"/>
      <point x="259" y="88" type="line"/>
      <point x="197" y="29" type="line"/>
      <point x="216" y="-65"/>
      <point x="223" y="-143"/>
      <point x="224" y="-235" type="curve" smooth="yes"/>
      <point x="224" y="-259"/>
      <point x="224" y="-274"/>
    </contour>
  </outline>
</glyph>
<glyph name="khaf-yezi" format="2">
  <advance width="471"/>
  <unicode hex="10E9E"/>
  <outline>
    <contour>
      <point x="353" y="-293" type="line"/>
      <point x="359" y="-293" type="line"/>
      <point x="436" y="-196" type="line"/>
      <point x="230" y="-42" type="line" smooth="yes"/>
      <point x="188" y="-12"/>
      <point x="175" y="6"/>
      <point x="175" y="28" type="curve" smooth="yes"/>
      <point x="175" y="51"/>
      <point x="188" y="64"/>
      <point x="230" y="83" type="curve" smooth="yes"/>
      <point x="382" y="152" type="line"/>
      <point x="382" y="173" type="line"/>
      <point x="239" y="269" type="line" smooth="yes"/>
      <point x="191" y="302"/>
      <point x="181" y="312"/>
      <point x="181" y="330" type="curve" smooth="yes"/>
      <point x="181" y="350"/>
      <point x="195" y="362"/>
      <point x="244" y="379" type="curve" smooth="yes"/>
      <point x="404" y="434" type="line"/>
      <point x="394" y="469" type="line"/>
      <point x="388" y="469" type="line"/>
      <point x="177" y="400" type="line" smooth="yes"/>
      <point x="98" y="374"/>
      <point x="65" y="344"/>
      <point x="65" y="296" type="curve" smooth="yes"/>
      <point x="65" y="254"/>
      <point x="89" y="218"/>
      <point x="146" y="181" type="curve" smooth="yes"/>
      <point x="257" y="108" type="line"/>
      <point x="290" y="154" type="line"/>
      <point x="132" y="84" type="line" smooth="yes"/>
      <point x="72" y="58"/>
      <point x="49" y="33"/>
      <point x="49" y="-8" type="curve" smooth="yes"/>
      <point x="49" y="-49"/>
      <point x="74" y="-85"/>
      <point x="130" y="-128" type="curve" smooth="yes"/>
    </contour>
    <contour>
      <point x="53" y="429" type="line"/>
      <point x="377" y="537" type="line"/>
      <point x="367" y="570" type="line"/>
      <point x="42" y="462" type="line"/>
    </contour>
  </outline>
</glyph>
<glyph name="gaf-yezi" format="2">
  <advance width="544"/>
  <unicode hex="10E9F"/>
  <outline>
    <contour>
      <point x="449" y="0" type="line"/>
      <point x="530" y="104" type="line"/>
      <point x="530" y="109" type="line"/>
      <point x="94" y="463" type="line"/>
      <point x="14" y="360" type="line"/>
      <point x="14" y="354" type="line"/>
    </contour>
    <contour>
      <point x="69" y="75" type="line"/>
      <point x="383" y="435" type="line"/>
      <point x="383" y="441" type="line"/>
      <point x="357" y="463" type="line"/>
      <point x="42" y="104" type="line"/>
      <point x="42" y="99" type="line"/>
    </contour>
    <contour>
      <point x="182" y="0" type="line"/>
      <point x="507" y="370" type="line"/>
      <point x="507" y="376" type="line"/>
      <point x="481" y="398" type="line"/>
      <point x="155" y="28" type="line"/>
      <point x="155" y="23" type="line"/>
    </contour>
  </outline>
</glyph>
<glyph name="lam-yezi" format="2">
  <advance width="385"/>
  <unicode hex="10EA0"/>
  <outline>
    <contour>
      <point x="7" y="0" type="line"/>
      <point x="148" y="0" type="line" smooth="yes"/>
      <point x="275" y="0"/>
      <point x="321" y="75"/>
      <point x="321" y="196" type="curve" smooth="yes"/>
      <point x="321" y="357"/>
      <point x="315" y="572"/>
      <point x="293" y="770" type="curve"/>
      <point x="288" y="770" type="line"/>
      <point x="218" y="720" type="line"/>
      <point x="246" y="560"/>
      <point x="263" y="378"/>
      <point x="263" y="249" type="curve" smooth="yes"/>
      <point x="263" y="156"/>
      <point x="223" y="121"/>
      <point x="131" y="121" type="curve" smooth="yes"/>
      <point x="54" y="121" type="line"/>
      <point x="7" y="6" type="line"/>
    </contour>
  </outline>
</glyph>
<glyph name="mim-yezi" format="2">
  <advance width="392"/>
  <unicode hex="10EA1"/>
  <outline>
    <contour>
      <point x="244" y="0" type="curve" smooth="yes"/>
      <point x="338" y="0" type="line"/>
      <point x="385" y="115" type="line"/>
      <point x="385" y="121" type="line"/>
      <point x="261" y="121" type="line" smooth="yes"/>
      <point x="170" y="121"/>
      <point x="131" y="156"/>
      <point x="129" y="249" type="curve" smooth="yes"/>
      <point x="118" y="770" type="line"/>
      <point x="113" y="770" type="line"/>
      <point x="43" y="725" type="line"/>
      <point x="76" y="171" type="line" smooth="yes"/>
      <point x="82" y="67"/>
      <point x="124" y="0"/>
    </contour>
  </outline>
</glyph>
<glyph name="nun-yezi" format="2">
  <advance width="650"/>
  <unicode hex="10EA2"/>
  <outline>
    <contour>
      <point x="60" y="0" type="line"/>
      <point x="552" y="0" type="line"/>
      <point x="597" y="116" type="line"/>
      <point x="574" y="183"/>
      <point x="564" y="249"/>
      <point x="564" y="318" type="curve" smooth="yes"/>
      <point x="564" y="376"/>
      <point x="572" y="420"/>
      <point x="584" y="463" type="curve"/>
      <point x="544" y="463" type="line"/>
      <point x="523" y="387"/>
      <point x="503" y="286"/>
      <point x="503" y="177" type="curve" smooth="yes"/>
      <point x="503" y="124"/>
      <point x="511" y="90"/>
      <point x="521" y="46" type="curve"/>
      <point x="588" y="126" type="line"/>
      <point x="99" y="126" type="line"/>
      <point x="123" y="105" type="line"/>
      <point x="148" y="180"/>
      <point x="173" y="294"/>
      <point x="173" y="363" type="curve" smooth="yes"/>
      <point x="173" y="437"/>
      <point x="145" y="468"/>
      <point x="99" y="468" type="curve" smooth="yes"/>
      <point x="68" y="468"/>
      <point x="47" y="454"/>
      <point x="38" y="421" type="curve"/>
      <point x="81" y="399"/>
      <point x="102" y="341"/>
      <point x="102" y="252" type="curve" smooth="yes"/>
      <point x="102" y="173"/>
      <point x="88" y="90"/>
      <point x="60" y="6" type="curve"/>
    </contour>
  </outline>
</glyph>
<glyph name="um-yezi" format="2">
  <advance width="365"/>
  <unicode hex="10EA3"/>
  <anchor x="196" y="495" name="top"/>
  <outline>
    <contour>
      <point x="90" y="-5" type="line"/>
      <point x="170" y="78"/>
      <point x="263" y="170"/>
      <point x="354" y="251" type="curve"/>
      <point x="354" y="256" type="line"/>
      <point x="269" y="323"/>
      <point x="185" y="394"/>
      <point x="110" y="463" type="curve"/>
      <point x="26" y="367" type="line"/>
      <point x="26" y="361" type="line"/>
      <point x="96" y="299"/>
      <point x="173" y="236"/>
      <point x="245" y="183" type="curve"/>
      <point x="259" y="218" type="line"/>
      <point x="192" y="153"/>
      <point x="127" y="87"/>
      <point x="66" y="21" type="curve"/>
    </contour>
  </outline>
</glyph>
<glyph name="waw-yezi" format="2">
  <advance width="391"/>
  <unicode hex="10EA4"/>
  <anchor x="196" y="495" name="top"/>
  <outline>
    <contour>
      <point x="90" y="-5" type="line"/>
      <point x="170" y="78"/>
      <point x="263" y="170"/>
      <point x="354" y="251" type="curve"/>
      <point x="354" y="256" type="line"/>
      <point x="269" y="323"/>
      <point x="185" y="394"/>
      <point x="110" y="463" type="curve"/>
      <point x="26" y="367" type="line"/>
      <point x="26" y="361" type="line"/>
      <point x="96" y="299"/>
      <point x="173" y="236"/>
      <point x="245" y="183" type="curve"/>
      <point x="243" y="202" type="line"/>
      <point x="181" y="143"/>
      <point x="122" y="82"/>
      <point x="66" y="21" type="curve"/>
    </contour>
    <contour>
      <point x="254" y="12" type="line"/>
      <point x="277" y="33"/>
      <point x="300" y="58"/>
      <point x="320" y="79" type="curve"/>
      <point x="290" y="72" type="line"/>
      <point x="308" y="53"/>
      <point x="330" y="31"/>
      <point x="351" y="12" type="curve"/>
      <point x="354" y="12" type="line"/>
      <point x="390" y="50" type="line"/>
      <point x="367" y="70"/>
      <point x="343" y="94"/>
      <point x="321" y="117" type="curve"/>
      <point x="319" y="117" type="line"/>
      <point x="293" y="89"/>
      <point x="262" y="57"/>
      <point x="236" y="31" type="curve"/>
    </contour>
  </outline>
</glyph>
<glyph name="ow-yezi" format="2">
  <advance width="396"/>
  <unicode hex="10EA5"/>
  <anchor x="196" y="495" name="top"/>
  <outline>
    <contour>
      <point x="90" y="-5" type="line"/>
      <point x="170" y="78"/>
      <point x="263" y="170"/>
      <point x="354" y="251" type="curve"/>
      <point x="354" y="256" type="line"/>
      <point x="269" y="323"/>
      <point x="185" y="394"/>
      <point x="110" y="463" type="curve"/>
      <point x="26" y="367" type="line"/>
      <point x="26" y="361" type="line"/>
      <point x="96" y="299"/>
      <point x="173" y="236"/>
      <point x="245" y="183" type="curve"/>
      <point x="259" y="218" type="line"/>
      <point x="192" y="153"/>
      <point x="127" y="87"/>
      <point x="66" y="21" type="curve"/>
    </contour>
    <contour>
      <point x="311" y="386" type="curve"/>
      <point x="312" y="386" type="line"/>
      <point x="338" y="414"/>
      <point x="369" y="446"/>
      <point x="395" y="472" type="curve"/>
      <point x="377" y="492" type="line"/>
      <point x="355" y="470"/>
      <point x="331" y="446"/>
      <point x="311" y="424" type="curve"/>
      <point x="341" y="431" type="line"/>
      <point x="323" y="451"/>
      <point x="301" y="473"/>
      <point x="280" y="492" type="curve"/>
      <point x="277" y="492" type="line"/>
      <point x="241" y="453" type="line"/>
      <point x="264" y="433"/>
      <point x="288" y="410"/>
    </contour>
  </outline>
</glyph>
<glyph name="ew-yezi" format="2">
  <advance width="486"/>
  <unicode hex="10EA6"/>
  <anchor x="259" y="495" name="top"/>
  <outline>
    <contour>
      <point x="221" y="-11" type="curve" smooth="yes"/>
      <point x="358" y="-11"/>
      <point x="448" y="96"/>
      <point x="448" y="225" type="curve" smooth="yes"/>
      <point x="448" y="329"/>
      <point x="398" y="421"/>
      <point x="229" y="476" type="curve"/>
      <point x="187" y="437" type="line" smooth="yes"/>
      <point x="94" y="346"/>
      <point x="44" y="255"/>
      <point x="44" y="148" type="curve" smooth="yes"/>
      <point x="44" y="51"/>
      <point x="108" y="-11"/>
    </contour>
    <contour>
      <point x="288" y="91" type="curve" smooth="yes"/>
      <point x="181" y="91"/>
      <point x="125" y="139"/>
      <point x="125" y="224" type="curve" smooth="yes"/>
      <point x="125" y="287"/>
      <point x="148" y="345"/>
      <point x="213" y="410" type="curve"/>
      <point x="157" y="375" type="line"/>
      <point x="236" y="370"/>
      <point x="394" y="268"/>
      <point x="392" y="102" type="curve"/>
      <point x="417" y="166" type="line"/>
      <point x="389" y="119"/>
      <point x="355" y="91"/>
    </contour>
  </outline>
</glyph>
<glyph name="hay-yezi" format="2">
  <advance width="486"/>
  <unicode hex="10EA7"/>
  <outline>
    <contour>
      <point x="221" y="-11" type="curve" smooth="yes"/>
      <point x="358" y="-11"/>
      <point x="448" y="96"/>
      <point x="448" y="225" type="curve" smooth="yes"/>
      <point x="448" y="336"/>
      <point x="376" y="439"/>
      <point x="120" y="509" type="curve"/>
      <point x="70" y="394" type="line"/>
      <point x="247" y="345"/>
      <point x="392" y="279"/>
      <point x="392" y="102" type="curve"/>
      <point x="417" y="166" type="line"/>
      <point x="389" y="119"/>
      <point x="355" y="91"/>
      <point x="285" y="91" type="curve" smooth="yes"/>
      <point x="181" y="91"/>
      <point x="125" y="139"/>
      <point x="125" y="204" type="curve" smooth="yes"/>
      <point x="125" y="284"/>
      <point x="209" y="356"/>
      <point x="399" y="481" type="curve"/>
      <point x="378" y="511" type="line"/>
      <point x="127" y="348"/>
      <point x="44" y="281"/>
      <point x="44" y="148" type="curve" smooth="yes"/>
      <point x="44" y="51"/>
      <point x="108" y="-11"/>
    </contour>
  </outline>
</glyph>
<glyph name="et-yezi" format="2">
  <advance width="520"/>
  <unicode hex="10EA9"/>
  <anchor x="251" y="601" name="top"/>
  <outline>
    <contour>
      <point x="412" y="-293" type="curve"/>
      <point x="417" y="-293" type="line"/>
      <point x="488" y="-251" type="line"/>
      <point x="470" y="-146"/>
      <point x="463" y="-44"/>
      <point x="463" y="50" type="curve" smooth="yes"/>
      <point x="463" y="298" type="line" smooth="yes"/>
      <point x="463" y="380"/>
      <point x="434" y="463"/>
      <point x="266" y="463" type="curve" smooth="yes"/>
      <point x="98" y="463" type="line"/>
      <point x="51" y="348" type="line"/>
      <point x="51" y="342" type="line"/>
      <point x="64" y="286"/>
      <point x="71" y="234"/>
      <point x="71" y="178" type="curve" smooth="yes"/>
      <point x="71" y="127"/>
      <point x="66" y="71"/>
      <point x="56" y="6" type="curve"/>
      <point x="56" y="0" type="line"/>
      <point x="443" y="0" type="line"/>
      <point x="443" y="121" type="line"/>
      <point x="95" y="121" type="line"/>
      <point x="98" y="97" type="line"/>
      <point x="110" y="171"/>
      <point x="122" y="245"/>
      <point x="122" y="319" type="curve" smooth="yes"/>
      <point x="122" y="344"/>
      <point x="120" y="369"/>
      <point x="117" y="393" type="curve"/>
      <point x="69" y="342" type="line"/>
      <point x="295" y="342" type="line" smooth="yes"/>
      <point x="371" y="342"/>
      <point x="404" y="314"/>
      <point x="404" y="239" type="curve" smooth="yes"/>
      <point x="404" y="-92" type="line" smooth="yes"/>
      <point x="404" y="-159"/>
      <point x="406" y="-226"/>
    </contour>
    <contour>
      <point x="98" y="533" type="line"/>
      <point x="463" y="533" type="line"/>
      <point x="463" y="569" type="line"/>
      <point x="98" y="569" type="line"/>
    </contour>
  </outline>
</glyph>
<glyph name="hamza-yezi" format="2">
  <unicode hex="10EAB"/>
  <anchor x="0" y="516" name="_top"/>
  <outline>
    <contour>
      <point x="-15" y="558" type="line"/>
      <point x="84" y="621"/>
      <point x="107" y="645"/>
      <point x="107" y="672" type="curve" smooth="yes"/>
      <point x="107" y="704"/>
      <point x="84" y="714"/>
      <point x="42" y="721" type="curve" smooth="yes"/>
      <point x="-51" y="737" type="line"/>
      <point x="-38" y="714" type="line"/>
      <point x="-38" y="747"/>
      <point x="15" y="759"/>
      <point x="85" y="767" type="curve"/>
      <point x="112" y="829" type="line"/>
      <point x="23" y="824"/>
      <point x="-96" y="771"/>
      <point x="-96" y="707" type="curve" smooth="yes"/>
      <point x="-96" y="681"/>
      <point x="-81" y="668"/>
      <point x="-49" y="662" type="curve" smooth="yes"/>
      <point x="3" y="653" type="line" smooth="yes"/>
      <point x="22" y="650"/>
      <point x="28" y="644"/>
      <point x="28" y="637" type="curve" smooth="yes"/>
      <point x="28" y="627"/>
      <point x="17" y="616"/>
      <point x="-30" y="581" type="curve"/>
    </contour>
  </outline>
</glyph>
<glyph name="madda-yezi" format="2">
  <unicode hex="10EAC"/>
  <anchor x="0" y="516" name="_top.madda"/>
  <outline>
    <contour>
      <point x="-219" y="582" type="line"/>
      <point x="-137" y="653" type="line"/>
      <point x="-166" y="642" type="line"/>
      <point x="-103" y="624"/>
      <point x="-40" y="614"/>
      <point x="71" y="614" type="curve" smooth="yes"/>
      <point x="113" y="614"/>
      <point x="153" y="617"/>
      <point x="202" y="624" type="curve"/>
      <point x="249" y="705" type="line"/>
      <point x="245" y="709" type="line"/>
      <point x="219" y="703"/>
      <point x="175" y="698"/>
      <point x="115" y="698" type="curve" smooth="yes"/>
      <point x="17" y="698"/>
      <point x="-60" y="709"/>
      <point x="-104" y="725" type="curve"/>
      <point x="-110" y="725" type="line"/>
      <point x="-240" y="605" type="line"/>
    </contour>
  </outline>
</glyph>
<glyph name="hyphen-yezi" format="2">
  <advance width="248"/>
  <unicode hex="10EAD"/>
  <outline>
    <contour>
      <point x="116" y="471" type="curve" smooth="yes"/>
      <point x="150" y="471"/>
      <point x="176" y="492"/>
      <point x="176" y="527" type="curve" smooth="yes"/>
      <point x="176" y="589"/>
      <point x="113" y="581"/>
      <point x="113" y="614" type="curve" smooth="yes"/>
      <point x="113" y="648"/>
      <point x="139" y="666"/>
      <point x="191" y="684" type="curve"/>
      <point x="191" y="726" type="line"/>
      <point x="83" y="696"/>
      <point x="43" y="631"/>
      <point x="43" y="558" type="curve" smooth="yes"/>
      <point x="43" y="504"/>
      <point x="74" y="471"/>
    </contour>
  </outline>
</glyph>
<glyph name="lamDot-yezi" format="2">
  <advance width="385"/>
  <unicode hex="10EB0"/>
  <outline>
    <contour>
      <point x="7" y="0" type="line"/>
      <point x="148" y="0" type="line" smooth="yes"/>
      <point x="275" y="0"/>
      <point x="321" y="75"/>
      <point x="321" y="196" type="curve" smooth="yes"/>
      <point x="321" y="357"/>
      <point x="315" y="572"/>
      <point x="293" y="770" type="curve"/>
      <point x="288" y="770" type="line"/>
      <point x="218" y="720" type="line"/>
      <point x="246" y="560"/>
      <point x="263" y="378"/>
      <point x="263" y="249" type="curve" smooth="yes"/>
      <point x="263" y="156"/>
      <point x="223" y="121"/>
      <point x="131" y="121" type="curve" smooth="yes"/>
      <point x="54" y="121" type="line"/>
      <point x="7" y="6" type="line"/>
    </contour>
    <contour>
      <point x="252" y="824" type="curve" smooth="yes"/>
      <point x="282" y="824"/>
      <point x="302" y="841"/>
      <point x="302" y="878" type="curve" smooth="yes"/>
      <point x="302" y="915"/>
      <point x="282" y="932"/>
      <point x="252" y="932" type="curve" smooth="yes"/>
      <point x="222" y="932"/>
      <point x="203" y="915"/>
      <point x="203" y="878" type="curve" smooth="yes"/>
      <point x="203" y="841"/>
      <point x="222" y="824"/>
    </contour>
  </outline>
</glyph>
<glyph name="yotCircum-yezi" format="2">
  <advance width="520"/>
  <unicode hex="10EB1"/>
  <anchor x="254" y="795" name="top"/>
  <outline>
    <contour>
      <point x="412" y="-293" type="curve"/>
      <point x="417" y="-293" type="line"/>
      <point x="488" y="-251" type="line"/>
      <point x="470" y="-146"/>
      <point x="463" y="-44"/>
      <point x="463" y="50" type="curve" smooth="yes"/>
      <point x="463" y="298" type="line" smooth="yes"/>
      <point x="463" y="380"/>
      <point x="434" y="463"/>
      <point x="266" y="463" type="curve" smooth="yes"/>
      <point x="98" y="463" type="line"/>
      <point x="51" y="348" type="line"/>
      <point x="51" y="342" type="line"/>
      <point x="64" y="286"/>
      <point x="71" y="234"/>
      <point x="71" y="178" type="curve" smooth="yes"/>
      <point x="71" y="127"/>
      <point x="66" y="71"/>
      <point x="56" y="6" type="curve"/>
      <point x="56" y="0" type="line"/>
      <point x="443" y="0" type="line"/>
      <point x="443" y="121" type="line"/>
      <point x="95" y="121" type="line"/>
      <point x="98" y="97" type="line"/>
      <point x="110" y="171"/>
      <point x="122" y="245"/>
      <point x="122" y="319" type="curve" smooth="yes"/>
      <point x="122" y="344"/>
      <point x="120" y="369"/>
      <point x="117" y="393" type="curve"/>
      <point x="69" y="342" type="line"/>
      <point x="295" y="342" type="line" smooth="yes"/>
      <point x="371" y="342"/>
      <point x="404" y="314"/>
      <point x="404" y="239" type="curve" smooth="yes"/>
      <point x="404" y="-92" type="line" smooth="yes"/>
      <point x="404" y="-159"/>
      <point x="406" y="-226"/>
    </contour>
    <contour>
      <point x="120" y="542" type="line"/>
      <point x="170" y="592"/>
      <point x="216" y="640"/>
      <point x="263" y="693" type="curve"/>
      <point x="238" y="684" type="line"/>
      <point x="271" y="640"/>
      <point x="317" y="587"/>
      <point x="361" y="542" type="curve"/>
      <point x="366" y="542" type="line"/>
      <point x="437" y="606" type="line"/>
      <point x="388" y="655"/>
      <point x="334" y="712"/>
      <point x="291" y="768" type="curve"/>
      <point x="287" y="768" type="line"/>
      <point x="227" y="696"/>
      <point x="160" y="624"/>
      <point x="100" y="561" type="curve"/>
    </contour>
  </outline>
</glyph>
<glyph name=".notdef" format="2">
  <advance width="589"/>
  <outline>
    <contour>
      <point x="88" y="0" type="line"/>
      <point x="499" y="0" type="line"/>
      <point x="499" y="714" type="line"/>
      <point x="88" y="714" type="line"/>
    </contour>
    <contour>
      <point x="139" y="51" type="line"/>
      <point x="139" y="663" type="line"/>
      <point x="448" y="663" type="line"/>
      <point x="448" y="51" type="line"/>
    </contour>
  </outline>
</glyph>
